<?xml version="1.0" encoding="utf-8"?>
<!-- Generator: Adobe Illustrator 25.3.1, SVG Export Plug-In . SVG Version: 6.00 Build 0)  -->
<svg version="1.1" id="Layer_1" xmlns="http://www.w3.org/2000/svg" xmlns:xlink="http://www.w3.org/1999/xlink" x="0px" y="0px"
	 viewBox="0 0 1388 499" style="enable-background:new 0 0 1388 499;" xml:space="preserve">
<style type="text/css">
	.st0{fill:#06C167;}
</style>
<rect x="-0.63" y="0.16" class="st0" width="1389.03" height="498.24"/>
<path d="M955.27,269.69c0-21-16.8-37.54-37.95-37.54c-20.74-0.34-37.82,16.2-38.16,36.93s16.2,37.82,36.93,38.16
	c0.41,0.01,0.82,0.01,1.23,0C938.47,307.24,955.27,290.74,955.27,269.69 M986.27,208.26v122.87H954.7V320
	c-11.26,9.28-25.41,14.31-40,14.22c-37.38,0-66.64-28.73-66.64-64.57s29.26-64.56,66.64-64.56c14.59-0.09,28.74,4.94,40,14.22
	v-11.05L986.27,208.26z M1091.27,303.26h-23.76c-7.24,0-11.88-3.13-11.88-9.67v-57.46h35.64v-27.87h-35.64v-35h-31.87v35h-24v27.87
	h24v65.42c0,16.5,11.88,29.58,33.32,29.58h34.19L1091.27,303.26z M1163.27,334.26c36.51,0,57.08-17.07,57.08-40.67
	c0-16.78-12.17-29.3-37.67-34.71l-26.94-5.4c-15.65-2.84-20.57-5.68-20.57-11.37c0-7.4,7.53-12,21.44-12
	c15.07,0,26.07,4,29.26,17.64h31.58c-1.74-25.61-20.57-42.67-58.81-42.67c-33,0-56.22,13.37-56.22,39.25
	c0,17.92,12.76,29.58,40.28,35.27l30.13,6.83c11.88,2.27,15.07,5.4,15.07,10.24c0,7.68-9,12.51-23.47,12.51
	c-18.25,0-28.68-4-32.74-17.64h-31.87c4.63,25.6,24.05,42.67,63.45,42.67 M720.62,164.74H839.7v28.45h-86.92v40.66h84.61v27.6
	h-84.61v41.24h86.92v28.44H720.62V164.74z"/>
<path d="M664,231.23v-22.32h-8.46c-13.55,0-23.46,6.17-29.51,15.91v-15h-24.2V331h24.43v-68.9c0-18.76,11.61-30.87,27.58-30.87
	L664,231.23z M488.39,259.23c4.36-18.52,19.6-30.87,37.74-30.87c18.14,0,33.38,12.35,37.49,30.87H488.39z M526.61,207.46
	c-34.71-0.29-63.08,27.62-63.37,62.33c0,0.2,0,0.4,0,0.6c0,36.09,28.54,63.16,65.55,63.16c22.5,0,40.88-9.73,53.21-25.88
	l-17.66-12.82c-9.18,12.11-21.28,17.81-35.55,17.81c-20.24,0.14-37.58-14.46-40.88-34.43h100.37v-7.84
	C588.28,234.3,562.16,207.46,526.61,207.46 M387,312.68c-23.28,0.23-42.34-18.45-42.57-41.73c0-0.09,0-0.18,0-0.27
	c0-23.51,19.11-42,42.57-42c23.21,0,42.03,18.82,42.03,42.03s-18.82,42.03-42.03,42.03 M320.51,331h24.19v-15.2
	c11.69,11.61,27.52,18.11,44,18.05c36.29,0,64.83-28.26,64.83-63.16c0-35.14-28.54-63.4-64.83-63.4c-16.41-0.08-32.16,6.4-43.77,18
	v-60.55h-24.42V331z M234.64,311.53c23.47,0,41.6-17.81,41.6-44.17V164.74h25.41V331h-25.16v-15.48
	c-11.37,11.64-27.09,18.29-44.75,18.29c-36.28,0-64.1-25.88-64.1-65.06v-104H193v102.57c0,26.84,17.9,44.17,41.6,44.17"/>
</svg>
